<svg xmlns="http://www.w3.org/2000/svg" width="16" zoomAndPan="magnify" viewBox="0 0 375 374.999991" height="16"
     preserveAspectRatio="xMidYMid meet" version="1.2"><defs><clipPath id="0fab35483a"><path d="M 9.128906 9.128906 L 364.371094 9.128906 L 364.371094 364.371094 L 9.128906 364.371094 Z M 9.128906 9.128906 "/></clipPath><clipPath id="6c15666a69"><path d="M 186.75 9.128906 C 88.652344 9.128906 9.128906 88.652344 9.128906 186.75 C 9.128906 284.847656 88.652344 364.371094 186.75 364.371094 C 284.847656 364.371094 364.371094 284.847656 364.371094 186.75 C 364.371094 88.652344 284.847656 9.128906 186.75 9.128906 Z M 186.75 9.128906 "/></clipPath><clipPath id="01192ec3c1"><path d="M 18.988281 18.5 L 187.738281 18.5 L 187.738281 355.25 L 18.988281 355.25 Z M 18.988281 18.5 "/></clipPath><clipPath id="b66c1155b1"><path d="M 104.945312 104.296875 L 187.445312 104.296875 L 187.445312 269.296875 L 104.945312 269.296875 Z M 104.945312 104.296875 "/></clipPath><clipPath id="b7c52ce773"><path d="M 187.546875 104.191406 L 270.046875 104.191406 L 270.046875 269.191406 L 187.546875 269.191406 Z M 187.546875 104.191406 "/></clipPath><clipPath id="285c29e60b"><path d="M 186.75 18.117188 L 234.960938 18.117188 L 234.960938 104.1875 L 186.75 104.1875 Z M 186.75 18.117188 "/></clipPath><clipPath id="294786b300"><path d="M 234.960938 61.210938 L 186.75 18.238281 L 186.75 104.1875 Z M 234.960938 61.210938 "/></clipPath><clipPath id="163475fdf4"><path d="M 140.03125 268.941406 L 188.246094 268.941406 L 188.246094 355 L 140.03125 355 Z M 140.03125 268.941406 "/></clipPath><clipPath id="4adfc2c1e8"><path d="M 140.03125 311.917969 L 188.246094 354.890625 L 188.246094 268.941406 Z M 140.03125 311.917969 "/></clipPath></defs><g id="9961019944"><g clip-rule="nonzero" clip-path="url(#0fab35483a)"><g clip-rule="nonzero" clip-path="url(#6c15666a69)"><path style=" stroke:none;fill-rule:nonzero;fill:#000000;fill-opacity:1;" d="M 9.128906 9.128906 L 364.371094 9.128906 L 364.371094 364.371094 L 9.128906 364.371094 Z M 9.128906 9.128906 "/></g></g><g clip-rule="nonzero" clip-path="url(#01192ec3c1)"><path style=" stroke:none;fill-rule:nonzero;fill:#ffffff;fill-opacity:1;" d="M 187.367188 18.515625 L 187.367188 355.25 C 94.375 355.25 18.996094 279.871094 18.996094 186.882812 C 18.996094 93.894531 94.375 18.511719 187.367188 18.511719 Z M 187.367188 18.515625 "/></g><g clip-rule="nonzero" clip-path="url(#b66c1155b1)"><path style=" stroke:none;fill-rule:nonzero;fill:#000000;fill-opacity:1;" d="M 187.441406 104.304688 L 187.441406 269.296875 C 141.878906 269.296875 104.945312 232.363281 104.945312 186.800781 C 104.945312 141.238281 141.878906 104.304688 187.441406 104.304688 Z M 187.441406 104.304688 "/></g><g clip-rule="nonzero" clip-path="url(#b7c52ce773)"><path style=" stroke:none;fill-rule:nonzero;fill:#ffffff;fill-opacity:1;" d="M 187.550781 269.1875 L 187.550781 104.191406 C 233.113281 104.191406 270.046875 141.125 270.046875 186.691406 C 270.046875 232.253906 233.113281 269.1875 187.550781 269.1875 Z M 187.550781 269.1875 "/></g><g clip-rule="nonzero" clip-path="url(#285c29e60b)"><g clip-rule="nonzero" clip-path="url(#294786b300)"><path style=" stroke:none;fill-rule:nonzero;fill:#ffffff;fill-opacity:1;" d="M 186.75 104.1875 L 186.75 18.308594 L 234.960938 18.308594 L 234.960938 104.1875 Z M 186.75 104.1875 "/></g></g><g clip-rule="nonzero" clip-path="url(#163475fdf4)"><g clip-rule="nonzero" clip-path="url(#4adfc2c1e8)"><path style=" stroke:none;fill-rule:nonzero;fill:#000000;fill-opacity:1;" d="M 188.246094 268.941406 L 188.246094 354.824219 L 140.03125 354.824219 L 140.03125 268.941406 Z M 188.246094 268.941406 "/></g></g></g></svg>